<svg width="15" height="13" viewBox="0 0 15 13" fill="none" xmlns="http://www.w3.org/2000/svg">
<path d="M5.18223 7.90186L9.93569 3.76859L3.65121 6.68375L0.195691 3.93446C0.119789 3.87411 0.0621631 3.79232 0.0296816 3.69883C-0.00279994 3.60535 -0.0087665 3.50411 0.0124931 3.4072C0.0337527 3.31028 0.0813416 3.22177 0.149587 3.15222C0.217833 3.08267 0.303857 3.03501 0.397404 3.01492L14.4018 0.0105948C14.4838 -0.00693461 14.5687 -0.00265865 14.6487 0.0230271C14.7288 0.0487129 14.8013 0.0949794 14.8595 0.157549C14.9178 0.220119 14.96 0.296972 14.9822 0.381003C15.0044 0.465033 15.0059 0.55353 14.9865 0.638309L12.2422 12.6017C12.223 12.6857 12.1839 12.7634 12.1284 12.8277C12.073 12.8921 12.003 12.9409 11.9248 12.9699C11.8467 12.9989 11.7627 13.0071 11.6807 12.9938C11.5987 12.9804 11.5212 12.946 11.4553 12.8935L5.18223 7.90186ZM3.87733 12.0331L4.56215 8.697L7.24668 10.8538L4.63039 12.5789C4.54753 12.6335 4.45102 12.6615 4.35295 12.6592C4.25489 12.657 4.15965 12.6247 4.07917 12.5663C3.99869 12.508 3.93655 12.4262 3.90056 12.3312C3.86456 12.2363 3.8563 12.1324 3.87683 12.0325L3.87733 12.0331Z" fill="#1890FF"/>
</svg>
